<?xml version="1.0" ?><!DOCTYPE svg  PUBLIC '-//W3C//DTD SVG 1.1//EN'  'http://www.w3.org/Graphics/SVG/1.1/DTD/svg11.dtd'><svg enable-background="new 0 0 512 512" height="512px" id="Layer_1" version="1.1" viewBox="0 0 512 512" width="512px" xml:space="preserve" xmlns="http://www.w3.org/2000/svg" xmlns:xlink="http://www.w3.org/1999/xlink"><g><path d="M105.178,464.041h301.644c4.971,0,9-4.029,9-9V129.847V56.959c0-4.971-4.029-9-9-9H105.178c-4.971,0-9,4.029-9,9v72.888   v325.194C96.178,460.012,100.208,464.041,105.178,464.041z M114.178,65.959h283.644v54.888H284.596c-4.971,0-9,4.029-9,9   s4.029,9,9,9h113.227v307.194H114.178V138.847h22.398c4.971,0,9-4.029,9-9s-4.029-9-9-9h-22.398V65.959z"/><path d="M164.717,211.72c1.363,0.759,2.872,1.137,4.378,1.137c1.646,0,3.29-0.451,4.739-1.349l38.714-23.978l38.712,23.978   c2.776,1.718,6.267,1.8,9.117,0.211c2.854-1.588,4.621-4.598,4.621-7.863V95.085c0-4.971-4.029-9-9-9h-86.904c-4.971,0-9,4.029-9,9   v108.772C160.096,207.122,161.865,210.131,164.717,211.72z M178.096,104.085H247v83.611l-29.712-18.403   c-2.903-1.798-6.574-1.798-9.478,0l-29.714,18.403V104.085z"/><path d="M290.762,104.085h64.479c4.971,0,9-4.029,9-9s-4.029-9-9-9h-64.479c-4.971,0-9,4.029-9,9S285.791,104.085,290.762,104.085z   "/><path d="M150.624,95.085c0-4.971-4.029-9-9-9h-9.533c-4.971,0-9,4.029-9,9s4.029,9,9,9h9.533   C146.594,104.085,150.624,100.056,150.624,95.085z"/><path d="M167.227,313.779h177.548c4.971,0,9-4.029,9-9V244.6c0-4.971-4.029-9-9-9H167.227c-4.971,0-9,4.029-9,9v60.18   C158.227,309.75,162.256,313.779,167.227,313.779z M176.227,253.6h159.548v42.18H176.227V253.6z"/><path d="M312.443,357.454H199.559c-4.971,0-9,4.029-9,9s4.029,9,9,9h112.884c4.971,0,9-4.029,9-9S317.414,357.454,312.443,357.454z   "/></g></svg>